# xmcd
#
# Track frame offsets:
#	150
#	15387
#	29909
#	43011
#	59933
#	73422
#	93964
#	105764
#	124028
#	144630
#	162887
#	181500
#	197240
#	210516
#	224131
#	241052
#	251493
#	270475
#	296901
#
# Disc length: 4144 seconds
#
# Revision: 2
# Processed by: cddbd v1.5.2PL0 Copyright (c) Steve Scherf et al.
# Submitted via: EZCDAudioConverter 1.3.4.1
#
DISCID=22102e13
DTITLE=Linda Perhacs - Parallelograms
DYEAR=1900
DGENRE=
TTITLE0=Chimacum Rain
TTITLE1=Paper Mountain Man
TTITLE2=Dolphin
TTITLE3=Call Of The River
TTITLE4=Sandy Toes
TTITLE5=Parallelograms
TTITLE6=Hey, Who Really Cares?
TTITLE7=Moons And Cattails
TTITLE8=Morning Colors
TTITLE9=Porcelain Baked-Over Cast-Iron Wedding
TTITLE10=Delicious
TTITLE11=If You Were My Man [Demo]
TTITLE12=If You Were My Man [Alternate Take]
TTITLE13=Hey, Who Really Cares? [With Intro]
TTITLE14=Chimacum Rain [Demo]
TTITLE15=Spoken Intro To Leonard Rosenman
TTITLE16=Chimacum Rain [Demo]
TTITLE17=BBC Interview (2005)
TTITLE18=I Would Rather Love
EXTD=
EXTT0=
EXTT1=
EXTT2=
EXTT3=
EXTT4=
EXTT5=
EXTT6=
EXTT7=
EXTT8=
EXTT9=
EXTT10=
EXTT11=
EXTT12=
EXTT13=
EXTT14=
EXTT15=
EXTT16=
EXTT17=
EXTT18=
PLAYORDER=
